<svg width="497" height="427" viewBox="0 0 497 427" fill="none" xmlns="http://www.w3.org/2000/svg">
<path d="M164.939 266.083H497V266.083C497 354.576 425.262 426.313 336.77 426.313H325.169C236.677 426.313 164.939 354.576 164.939 266.083V266.083Z" fill="#F97316"/>
<path d="M75.8548 273.057C83.5067 263.759 97.7433 263.759 105.395 273.057L109.247 277.737C113.295 282.656 119.526 285.237 125.866 284.621L131.9 284.035C143.885 282.871 153.952 292.938 152.788 304.923L152.202 310.957C151.586 317.297 154.167 323.528 159.086 327.576L163.767 331.428C173.064 339.08 173.065 353.317 163.767 360.968L159.086 364.82C154.167 368.868 151.586 375.099 152.202 381.44L152.788 387.473C153.952 399.458 143.885 409.525 131.9 408.361L125.866 407.775C119.526 407.159 113.295 409.74 109.247 414.659L105.395 419.34C97.7434 428.638 83.5067 428.638 75.8548 419.34L72.0029 414.659C67.955 409.74 61.7241 407.159 55.3837 407.775L49.3503 408.361C37.3649 409.525 27.2981 399.458 28.4621 387.473L29.048 381.44C29.6638 375.099 27.0828 368.868 22.1641 364.82L17.4835 360.968C8.18552 353.317 8.18551 339.08 17.4835 331.428L22.1641 327.576C27.0828 323.528 29.6638 317.297 29.048 310.957L28.4621 304.923C27.2981 292.938 37.3649 282.871 49.3502 284.035L55.3837 284.621C61.724 285.237 67.955 282.656 72.0029 277.737L75.8548 273.057Z" fill="#F9A8D4"/>
<rect x="253.458" width="218.232" height="123.254" transform="rotate(32.8005 253.458 0)" fill="#86EFAC"/>
<path d="M436.72 176.96C456.741 176.96 472.971 193.19 472.971 213.211V213.211C472.971 233.232 456.741 249.462 436.72 249.462V249.462C416.699 249.462 400.468 233.232 400.468 213.211V213.211C400.468 193.19 416.699 176.96 436.72 176.96V176.96Z" fill="#F9A8D4"/>
<path d="M447.074 208.674C450.849 210.851 450.849 216.299 447.074 218.476L435.78 224.992C432.008 227.168 427.294 224.446 427.294 220.091L427.294 207.059C427.294 202.704 432.008 199.981 435.78 202.158L447.074 208.674Z" fill="#FFF4E9"/>
<path d="M104.639 197.169L81.0676 228.572C71.8349 240.873 54.3787 243.36 42.078 234.127C29.7774 224.894 27.2904 207.438 36.5231 195.137L60.0942 163.734C69.3269 151.433 86.7831 148.946 99.0837 158.179C111.384 167.412 113.871 184.868 104.639 197.169Z" stroke="#FDE047" stroke-width="28.2922"/>
<circle cx="210.771" cy="196.163" r="53.872" transform="rotate(-20.0816 210.771 196.163)" fill="#89C0FF"/>
<rect x="194.239" y="179.442" width="13.0599" height="46.1494" rx="6.52993" transform="rotate(-20.0816 194.239 179.442)" fill="white"/>
<rect x="182.211" y="208.335" width="13.0599" height="19.5898" rx="6.52993" transform="rotate(-20.0816 182.211 208.335)" fill="white"/>
<rect x="176.608" y="193.014" width="13.0599" height="13.0599" rx="6.52993" transform="rotate(-20.0816 176.608 193.014)" fill="white"/>
<rect x="211.981" y="166.173" width="13.0599" height="58.8802" rx="6.52993" transform="rotate(-20.0816 211.981 166.173)" fill="white"/>
<path d="M146.036 123.735L136.856 128.935L141.756 138.279L132.663 132.929L127.021 141.844L127.108 131.294L116.566 130.866L125.746 125.666L120.846 116.322L129.939 121.672L135.581 112.757L135.494 123.307L146.036 123.735Z" fill="#875651"/>
<path d="M297.404 204.242L314.931 219.668L338.05 216.403L322.625 233.93L325.889 257.049L308.362 241.624L285.243 244.889L300.668 227.361L297.404 204.242Z" fill="#875651"/>
</svg>
